<?xml version="1.0" encoding="utf-8"?>
<!-- Generator: Adobe Illustrator 22.0.0, SVG Export Plug-In . SVG Version: 6.00 Build 0)  -->
<svg version="1.1" id="Layer_1" xmlns="http://www.w3.org/2000/svg" xmlns:xlink="http://www.w3.org/1999/xlink" x="0px" y="0px"
	 viewBox="0 0 813.1 103.7" style="enable-background:new 0 0 813.1 103.7;" xml:space="preserve">
<style type="text/css">
	.st0{fill:#60BFBD;}
	.st1{opacity:0.25;enable-background:new    ;}
	.st2{opacity:0.1;enable-background:new    ;}
	.st3{fill:#FFFFFF;}
	.st4{fill:none;}
	.st5{font-family:'LemonMilklightitalic';}
	.st6{font-size:35px;}
	.st7{font-family:'LemonMilk';}
	.st8{font-size:39px;}
</style>
<g id="icon-loremipsum">
	<path id="paper" class="st0" d="M82.4,36.6v58.1c0,2.2-1.8,4-4,4H14.3c-2.2,0-4-1.8-4-4V10.6c0-2.2,1.8-4,4-4h38.1L82.4,36.6z"/>
	<polygon id="corner" class="st1" points="82.4,36.6 52.4,36.6 52.4,6.5 	"/>
	<polygon id="shadow" class="st2" points="82.4,66.7 52.4,36.6 82.4,36.6 	"/>
	<path id="text" class="st3" d="M50.4,70.7v8h-22V44.6h8v26.1H50.4z M64.4,54.6h-8v24h8V54.6z M60.4,44.6c-2.2,0-4,1.8-4,4
		s1.8,4,4,4s4-1.8,4-4S62.6,44.6,60.4,44.6z"/>
</g>
<rect x="121.1" y="12.7" class="st4" width="442" height="39"/>
<text transform="matrix(1 0 0 1 121.0538 39.1489)" class="st5 st6">The  Unoffical </text>
<rect x="100.1" y="60.2" class="st4" width="730" height="43"/>
<text transform="matrix(1.16 0 0 1.21 100.0538 90.9285)" class="st7 st8">Lorem Ipsum Documentation</text>
</svg>
